<?xml version="1.0" encoding="UTF-8"?>
<svg id="A-16" xmlns="http://www.w3.org/2000/svg" width="821.1" height="725.42" viewBox="0 0 821.1 725.42">
  <path d="M363.78,27L7.32,644.42c-20.78,36,5.2,81,46.77,81h712.94c41.57,0,67.55-45,46.77-81L457.32,27c-20.78-36-72.75-36-93.53,0Z" fill="#d40000"/>
  <path d="M33.3,659.42L389.77,42c9.24-16,32.33-16,41.57,0l356.47,617.42c9.24,16-2.31,36-20.78,36H54.08c-18.48,0-30.02-20-20.78-36Z" fill="#febe0b"/>
  <g>
    <circle cx="410.55" cy="185.42" r="30"/>
    <path d="M573.35,606.68l-50.3,28.74h-56.25l53.51-32.93-85.06-148.85-47.2,58.03-28.39,90.12-10.59,33.63-84.77-16.09v-10.13l52.12-6.39,37.88-113.64,56.25-78.75-11.92-89.46c-7.15,13.28-11.83,21.96-11.83,21.96l-67.55,68.8-14.13-30.87,60.43-60.43,25.4-57.02,19.6-44.02,60,25.12,60,75.92v101.25l-30,16.88v-101.15l-30-39.34v67.36l12,54-2.83,8.5,93.63,178.76Z"/>
    <path d="M146.17,534.17h183.64l-7.5,22.5h-187.38l11.24-22.5ZM390.4,534.17l-7.09,22.5h100.45l-12.86-22.5h-80.5ZM674.93,534.17h-129.4l11.79,22.5h128.85l-11.24-22.5Z"/>
    <polygon points="742.42 669.17 78.67 669.17 89.92 646.67 731.17 646.67 742.42 669.17"/>
  </g>
</svg>