<?xml version="1.0" encoding="UTF-8"?>
<svg id="A-17" xmlns="http://www.w3.org/2000/svg" width="821.1" height="725.42" viewBox="0 0 821.1 725.42">
  <path d="M363.78,27L7.32,644.42c-20.78,36,5.2,81,46.77,81h712.94c41.57,0,67.55-45,46.77-81L457.32,27c-20.78-36-72.75-36-93.53,0Z" fill="#d40000"/>
  <path d="M33.3,659.42L389.77,42c9.24-16,32.33-16,41.57,0l356.47,617.42c9.24,16-2.31,36-20.78,36H54.08c-18.48,0-30.02-20-20.78-36Z" fill="#febe0b"/>
  <g>
    <g>
      <circle cx="286.8" cy="376.67" r="30"/>
      <path d="M388.05,579.17v56.25l-22.5-35h-62.5l-18.5-37-31.5,15.75v78.75h-56.25l33.27-21.67s-.08-22.8-.05-45.56c.01-10.83.04-21.65.12-29.99l39.79-26.53,5.59-3.73-11.18-52.08-13.14,18.35-50.96,18.4-14.13-14.13,54.95-24.53,47.26-68.19,71.61,53.99v63.48l-22.5,11.25v-62.16s-16.88-12.15-16.88-12.15v116.5h67.5Z"/>
    </g>
    <g>
      <circle cx="478.05" cy="281.05" r="36"/>
      <polygon points="613.05 556.67 613.05 635.42 584.93 590.42 506.17 590.42 479.32 531.83 444.3 551.85 444.3 657.92 365.55 657.92 410.55 629.8 410.55 535.42 465.33 486.72 452.94 418.6 438.01 441.69 378.6 471.4 365.55 455.42 409.02 429.33 445.24 376.25 481.39 323.28 502.75 341.59 573.67 402.38 573.67 477.92 545.55 493.99 545.55 418.59 523.05 399.84 523.05 556.67 613.05 556.67" stroke="#000" stroke-miterlimit="10" stroke-width=".5"/>
    </g>
  </g>
</svg>