<?xml version="1.0" encoding="UTF-8"?>
<svg id="A-2" xmlns="http://www.w3.org/2000/svg" width="821.1" height="725.42" viewBox="0 0 821.1 725.42">
  <path d="M457.32,27l356.47,617.42c20.78,36-5.2,81-46.77,81H54.08c-41.57,0-67.55-45-46.77-81L363.78,27c20.78-36,72.75-36,93.53,0Z" fill="#d40000"/>
  <path d="M33.3,659.42L389.77,42c9.24-16,32.33-16,41.57,0l356.47,617.42c9.24,16-2.31,36-20.78,36H54.08c-18.48,0-30.02-20-20.78-36Z" fill="#febe0b"/>
  <path d="M224.86,358.99l73.08,52.53c113.75,11.24,202.61,107.2,202.61,223.9v45l45-45,45,45v-45c0-163.39-124.4-297.73-283.65-313.45l-82.04,37.02Z"/>
</svg>