<?xml version="1.0" encoding="UTF-8"?>
<svg id="A-29" xmlns="http://www.w3.org/2000/svg" width="821.1" height="725.42" viewBox="0 0 821.1 725.42">
  <path d="M363.78,27L7.32,644.42c-20.78,36,5.2,81,46.77,81h712.94c41.57,0,67.55-45,46.77-81L457.32,27c-20.78-36-72.75-36-93.53,0Z" fill="#d40000"/>
  <path d="M33.3,659.42L389.77,42c9.24-16,32.33-16,41.57,0l356.47,617.42c9.24,16-2.31,36-20.78,36H54.08c-18.48,0-30.02-20-20.78-36Z" fill="#febe0b"/>
  <g>
    <g>
      <circle cx="410.55" cy="252.92" r="67.5"/>
      <circle cx="410.55" cy="252.92" r="52.5" fill="#d40000"/>
    </g>
    <g>
      <circle cx="410.55" cy="410.42" r="67.5"/>
      <circle cx="410.55" cy="410.42" r="52.5" fill="#febe0b"/>
    </g>
    <g>
      <circle cx="410.55" cy="567.92" r="67.5"/>
      <circle cx="410.55" cy="567.92" r="52.5" fill="#009200"/>
    </g>
  </g>
</svg>