<?xml version="1.0" encoding="UTF-8"?>
<svg id="A-30" xmlns="http://www.w3.org/2000/svg" width="821.1" height="725.42" viewBox="0 0 821.1 725.42">
  <path d="M363.78,27L7.32,644.42c-20.78,36,5.2,81,46.77,81h712.94c41.57,0,67.55-45,46.77-81L457.32,27c-20.78-36-72.75-36-93.53,0Z" fill="#d40000"/>
  <path d="M33.3,659.42L389.77,42c9.24-16,32.33-16,41.57,0l356.47,617.42c9.24,16-2.31,36-20.78,36H54.08c-18.48,0-30.02-20-20.78-36Z" fill="#febe0b"/>
  <g>
    <path d="M455.55,230.42c-.03,1.69-.13,3.36-.28,5.02-.03.32-26.81,293.64-26.82,293.86-.94,9.06-8.6,16.12-17.9,16.12s-16.96-7.06-17.9-16.12c0-.22-26.79-293.54-26.82-293.86-.15-1.66-.25-3.33-.28-5.02,0-24.85,20.15-45,45-45s45,20.15,45,45Z"/>
    <circle cx="410.55" cy="617.42" r="30"/>
  </g>
</svg>