<?xml version="1.0" encoding="UTF-8"?>
<svg id="A-8" xmlns="http://www.w3.org/2000/svg" width="821.1" height="725.42" viewBox="0 0 821.1 725.42">
  <path d="M363.78,27L7.32,644.42c-20.78,36,5.2,81,46.77,81h712.94c41.57,0,67.55-45,46.77-81L457.32,27c-20.78-36-72.75-36-93.53,0Z" fill="#d40000"/>
  <path d="M33.3,659.42L389.77,42c9.24-16,32.33-16,41.57,0l356.47,617.42c9.24,16-2.31,36-20.78,36H54.08c-18.48,0-30.02-20-20.78-36Z" fill="#febe0b"/>
  <g>
    <path d="M273.68,576.56c57.6,65.54,153.58,81.05,228.89,36.99l16.01,21.01c15.79-31.78,23.78-66.87,23.31-102.36l-92.74,11.26,16.01,21.01c-49.79,25.13-110.29,13.04-146.6-29.29l-44.88,41.39Z"/>
    <path d="M410.64,304.57l56.12,74.68,10.19-24.37c46.65,30.55,66.44,89,47.93,141.61l58.28,18.17c27.96-82.65-6.6-173.53-82.41-216.72l10.19-24.37c-35.42,2.22-69.8,12.84-100.3,30.99Z"/>
    <path d="M202.14,460.69c19.63,29.57,46.02,54.03,76.99,71.37l36.62-85.94-26.2,3.36c3.13-55.68,43.86-102.04,98.67-112.31l-13.4-59.56c-85.56,17.11-146.98,92.48-146.48,179.73,0,0-26.2,3.36-26.2,3.36Z"/>
  </g>
</svg>