<?xml version="1.0" encoding="UTF-8"?>
<svg id="B-42" xmlns="http://www.w3.org/2000/svg" width="800.01" height="800.03" viewBox="0 0 800.01 800.03">
  <circle cx="400.01" cy="400.02" r="400" fill="#fff"/>
  <path d="M0,400.02c-1.23,222.27,184.51,401.7,400,400,220.91,0,400-179.09,400-400C801.5,177.87,614.91-1.95,400.01.02,179.1.02,0,179.11,0,400.02ZM200.41,737.47C85.23,669.19,8.01,543.63,8.01,400.02,8.01,183.52,183.51,8.02,400.01,8.02c30.32,0,59.84,3.44,88.19,9.96L200.41,737.47ZM400.01,792.02c-30.32,0-59.84-3.44-88.19-9.96L599.61,62.57c115.18,68.28,192.4,193.84,192.4,337.45,0,216.5-175.5,392-392,392Z"/>
</svg>