<?xml version="1.0" encoding="UTF-8"?>
<svg id="C-16" xmlns="http://www.w3.org/2000/svg" width="802" height="802" viewBox="0 0 802 802">
  <circle cx="401" cy="401" r="400" fill="#fff"/>
  <circle cx="401" cy="401" r="400.5" fill="none" stroke="#000" stroke-miterlimit="1"/>
  <circle cx="401" cy="401" r="392" fill="#039"/>
  <g>
    <path d="M226.39,437.9l14.39,1.08,1.36-9.9,23.13-78.09-6.57,89.33,3.52.26-17.68,200.41h34.47l34.63-197.89,50.37,167.89h31.82l15.29-34.24-17.78-7.62-29.73-182.95,15.17-86.68,83.03,125.32,7.33-5.7,37,21.39,27.3-9.22-23.55,94.19,9.47,2.13-26.81,107.26,23.82,2.13,34.65-102.68,44.25,78.66,13.24,1.16,11.46-25.79-11.92-1.49-26.44-68.23,14.5-58.01,25.72,50.05,20.12-7.82-47.73-95.47-43.2-7.02-43.67,19.11-30.31-16.67-85.16-151.4-40.86-32.91-27.61-1.38-63.19,27.08-19.2,76.8-14.61,116.9" fill="#fff" fill-rule="evenodd"/>
    <circle cx="341" cy="181" r="30" fill="#fff"/>
    <circle cx="581" cy="376" r="25" fill="#fff"/>
  </g>
</svg>