<?xml version="1.0" encoding="UTF-8"?>
<svg id="D-40" xmlns="http://www.w3.org/2000/svg" width="902" height="602" viewBox="0 0 902 602">
  <rect x="1" y="1" width="900" height="600" rx="30" ry="30" fill="#fff"/>
  <rect x=".5" y=".5" width="901" height="601" rx="30.5" ry="30.5" fill="none" stroke="#000"/>
  <rect x="7" y="7" width="888" height="588" rx="24" ry="24" fill="#039"/>
  <path d="M496,129.423l-8.125-45.923h-133.75l-8.125,44.1-7.5,8.4v66.668h7.5v22.5h22.5v-22.5h105v22.5h22.5v-22.5h7.5v-66.668l-7.5-6.577ZM363.4,98.5h115.196l4.17,30h-123.532l4.166-30ZM357.25,147.25c6.214,0,11.25,5.036,11.25,11.25s-5.036,11.25-11.25,11.25-11.25-5.036-11.25-11.25,5.036-11.25,11.25-11.25ZM496,188.5h-150v-7.5h150v7.5ZM484.75,169.75c-6.214,0-11.25-5.036-11.25-11.25s5.036-11.25,11.25-11.25,11.25,5.036,11.25,11.25-5.036,11.25-11.25,11.25Z" fill="#fff" fill-rule="evenodd"/>
  <g fill="#fff">
    <path d="M811,121v-18.75h-7.5v13.13l-22.5-16.88-60,45,7.5.29v157.21h37.5v-60h30v60h37.5v-157.5h7.5l-30-22.5ZM796,211h-30v-30h30v30Z"/>
    <path d="M616,241v45c0,24.813,20.187,45,45,45h180v15h-180c-33.137,0-60-26.863-60-60v-45h15Z"/>
  </g>
  <g fill="#fff">
    <circle cx="503.5" cy="364.75" r="12"/>
    <circle cx="451" cy="458.5" r="15"/>
    <path d="M548.5,454.75v26.25l-9.375-15h-26.25l-8.515-18.578-12.11,7.328v33.75h-26.25l15-9.375v-31.458l18.261-16.232c-.46-2.53-3.518-19.348-3.895-21.421l-3.457,5.531-21.709,10.855-4.2-5.4,14.968-6.829c7.876-11.159,17.399-24.65,25.281-35.815,7.682,6.585,21.455,18.391,29.126,24.965v26.989l-9.375,5.173v-26.983l-7.5-6.25v52.5h30Z"/>
  </g>
  <g fill="#fff">
    <circle cx="180.783" cy="179.125" r="20"/>
    <polygon points="272.66 461.64 272.66 470.27 221.77 481 214.71 458.58 195.78 398.5 164.32 359.81 103.86 457.17 121 469.97 121 481 105.78 481 74.125 461.84 134.67 338.92 132.78 329.5 140.78 284.12 140.78 256.09 120.78 282.32 120.78 349.75 100.78 338.5 100.78 271 142.66 214.76 180.78 201.76 211 269.12 256.69 313.16 245.4 331.87 188.73 276.98 180.78 331 218.28 383.5 243.54 457.39 272.66 461.64"/>
  </g>
</svg>