<?xml version="1.0" encoding="UTF-8"?>
<svg id="D-42" xmlns="http://www.w3.org/2000/svg" width="1202" height="532" viewBox="0 0 1202 532">
  <rect x="1" y="1" width="1200" height="530" rx="30" ry="30" fill="#fff"/>
  <rect x=".5" y=".5" width="1201" height="531" rx="30.5" ry="30.5" fill="none" stroke="#000"/>
  <path d="M1171,11H31c-11.05,0-20,8.95-20,20v470c0,11.05,8.95,20,20,20h1140c11.05,0,20-8.95,20-20V31c0-11.05-8.95-20-20-20ZM1181,501c0,5.51-4.49,10-10,10H31c-5.51,0-10-4.49-10-10V31c0-5.51,4.49-10,10-10h1140c5.51,0,10,4.49,10,10v470Z"/>
  <polygon points="81 291 161 259 241 291 241 339 273 339 273 307 337 83 401 307 401 339 433 339 433 323 481 275 561 275 561 259 641 259 641 275 721 275 769 323 769 339 801 339 801 291 881 243 961 291 961 339 993 339 993 179 1057 163 1121 179 1121 451 81 451 81 291"/>
</svg>