<?xml version="1.0" encoding="UTF-8"?>
<svg id="D-6b" xmlns="http://www.w3.org/2000/svg" width="602" height="602" viewBox="0 0 602 602">
  <rect x="1" y="1" width="600" height="600" rx="30" ry="30" fill="#fff"/>
  <rect x=".5" y=".5" width="601" height="601" rx="30.5" ry="30.5" fill="none" stroke="#000"/>
  <rect x="7" y="7" width="588" height="588" rx="24" ry="24" fill="#039"/>
  <g>
    <polygon points="301 11 11 511 591 511 301 11" fill="#fff"/>
    <g>
      <circle cx="232.04" cy="208.18" r="13.12"/>
      <path d="M290.85,340.71c-6.65,0-12.93,1.62-18.45,4.48l-5.81-9.38c2.38-8.34,10.61-37.18,11.4-39.93-4.92-11.49-12.07-44.82-16.94-56.18-3.59-6.46-9.89-13.85-13.37-20.11l-13.14,5.47c-9.35,17.59-32.87,48.57-42.21,66.16l.04.08h-1.13c-4.38,0-8.28,2.94-9.49,7.14l-12.45,43.1c-2.63-.54-5.36-.83-8.14-.83-22.17,0-40.15,17.97-40.15,40.15s17.97,40.15,40.15,40.15,40.14-17.97,40.14-40.15c0-17.22-10.84-31.9-26.07-37.61l2.31-7.99,46.65,40.14c-.81,1.65-1.27,3.5-1.27,5.46,0,6.82,5.53,12.35,12.35,12.35,5.76,0,10.59-3.94,11.97-9.26h3.21c.58,2.75,1.13,5.38,1.65,7.84-4.07,3.18-9.87,7.7-15.13,11.81l.76,4.57c6.8-1.1,13.95-2.27,20.89-3.39,7.31,9.85,19.04,16.24,32.25,16.24,22.17,0,40.15-17.97,40.15-40.15s-17.97-40.15-40.15-40.15ZM195.12,380.85c0,18.76-15.21,33.97-33.97,33.97s-33.97-15.21-33.97-33.97,15.21-33.97,33.97-33.97c2.19,0,4.34.21,6.42.61l-7.9,27.36h0c-2.69.67-4.69,3.1-4.69,6,0,3.41,2.77,6.18,6.18,6.18s6.18-2.76,6.18-6.18c0-1.66-.66-3.17-1.73-4.27h0s7.91-27.37,7.91-27.37c12.65,4.94,21.61,17.25,21.61,31.65ZM187.67,300.15c.46-1.57,1.92-2.68,3.56-2.68h11.67c.68-.96,27.66-30.1,33.02-37.72l9.24,28.91c-11.06,8.74-29.59,18.21-41.16,27.35h-20.91l4.58-15.85ZM247.68,312.77c-.07.4-.26,1.56-.54,3.23h-4.95c2.09-1.23,4-2.35,5.49-3.23ZM215.91,360.12l-36.49-31.39,1.89-6.55h25.04c4.52,9.99,11.73,25.91,15.37,33.95l-5.81,3.99ZM235.94,368.52c-.22-.01-.45-.02-.67-.02-2.62,0-5.06.82-7.05,2.21l-5.76-4.96c5.16-.55,10.39-1.11,14.86-1.59l-1.38,4.36ZM225.75,325.66c1.6-.94,3.66-2.15,5.93-3.49h14.44c-1.54,9.23-3.67,21.97-3.84,23.02.14.65.28,1.32.42,2l-3,9.46c-4.49-9.97-10.29-22.88-13.95-30.99ZM247.23,377.76c-.8-3.1-2.77-5.72-5.41-7.38l3.46-10.91c1.27,6.01,2.59,12.29,3.85,18.29h-1.91ZM262.84,348.92c.46-1.6.95-3.31,1.46-5.09l2.85,4.61c-1.35.99-2.64,2.06-3.86,3.21-.16-.93-.31-1.84-.45-2.73ZM270.42,353.71l14.89,24.05h.2c-.04.06-.07.11-.09.17l-.11-.17h-17.66c-1.05-6.27-2.1-12.58-3.08-18.44,1.72-2.1,3.68-3.98,5.85-5.61ZM290.85,414.82c-10,0-18.99-4.32-25.21-11.2,2.1-.34,4.15-.68,6.15-1-.93-5.55-2-11.99-3.12-18.68h16.83c1.07,1.84,3.06,3.09,5.34,3.09,3.41,0,6.18-2.76,6.18-6.18s-2.77-6.18-6.18-6.18c-.06,0-.12,0-.19,0l-15-24.22c4.57-2.29,9.73-3.58,15.18-3.58,18.76,0,33.97,15.21,33.97,33.97s-15.21,33.97-33.97,33.97Z"/>
    </g>
    <g>
      <circle cx="402.42" cy="253.88" r="15.88"/>
      <path d="M403.02,273.19l-25.26,55.91-35.97,36.38,8.38,16.15,46.33-45.85,6.28,42.3-30.83,43.43-20.49,61.34-21.76,4.27.03,6.41,39.81,7.2,21.41-66.3,26.22-31.19,48.77,81.47-13.85,11.04v6.26h13.24l24.9-14.32-49.58-102.19,1.81-5.85-6.15-39.66-.25-21.75,16.28,19.56v56.91l16.09-9.26v-57.19l-34.06-44.42-31.33-10.64h0Z" fill-rule="evenodd"/>
    </g>
    <path d="M75.25,442h278.75l-5,15H64l11.25-15ZM395.69,442l-4.69,15h48l-7.5-15h-35.81ZM531.7,442h-52.57l9.37,15h53.7l-10.5-15ZM542.2,457l-10.5-15M488.5,457l-9.37-15M439,457l-7.5-15M395.69,442l-4.69,15M354,442l-5,15M75.25,442l-11.25,15"/>
  </g>
</svg>